<svg width="322" height="285" viewBox="0 0 322 285" fill="none" xmlns="http://www.w3.org/2000/svg">
<g filter="url(#filter0_f_6_234)">
<circle cx="158.5" cy="142.5" r="140.5" fill="#57EAFE"/>
<circle cx="158.5" cy="142.5" r="139.5" stroke="black" stroke-width="2"/>
</g>
<g filter="url(#filter1_f_6_234)">
<g filter="url(#filter2_d_6_234)">
<rect x="23.2355" y="142.894" width="192" height="192" rx="5" transform="rotate(-44.9554 23.2355 142.894)" fill="white"/>
<rect x="26.7711" y="142.897" width="187" height="187" rx="2.5" transform="rotate(-44.9554 26.7711 142.897)" stroke="black" stroke-width="5"/>
</g>
<g filter="url(#filter3_i_6_234)">
<rect x="38.7919" y="142.906" width="170" height="170" rx="5" transform="rotate(-44.9554 38.7919 142.906)" fill="#57EAFE"/>
</g>
<rect x="42.3274" y="142.909" width="165" height="165" rx="2.5" transform="rotate(-44.9554 42.3274 142.909)" stroke="black" stroke-width="5"/>
</g>
<g filter="url(#filter4_f_6_234)">
<g filter="url(#filter5_d_6_234)">
<rect x="99.9999" y="201.235" width="117.235" height="117.235" rx="5" transform="rotate(-89.9975 99.9999 201.235)" fill="white"/>
<rect x="101.5" y="199.735" width="114.235" height="114.235" rx="3.5" transform="rotate(-89.9975 101.5 199.735)" stroke="black" stroke-width="3"/>
</g>
<g filter="url(#filter6_i_6_234)">
<rect x="106.717" y="194.518" width="103.802" height="103.802" rx="5" transform="rotate(-89.9975 106.717 194.518)" fill="#57EAFE"/>
</g>
<rect x="108.217" y="193.019" width="100.802" height="100.802" rx="3.5" transform="rotate(-89.9975 108.217 193.019)" stroke="black" stroke-width="3"/>
</g>
<g filter="url(#filter7_di_6_234)">
<mask id="path-11-outside-1_6_234" maskUnits="userSpaceOnUse" x="28" y="108" width="266" height="76" fill="black">
<rect fill="white" x="28" y="108" width="266" height="76"/>
<path d="M30.8863 181V111.182H43.5341V170.398H74.2841V181H30.8863ZM144.929 146.091C144.929 153.614 143.52 160.057 140.702 165.42C137.906 170.761 134.088 174.852 129.247 177.693C124.429 180.534 118.963 181.955 112.849 181.955C106.736 181.955 101.258 180.534 96.4176 177.693C91.5994 174.83 87.7812 170.727 84.963 165.386C82.1676 160.023 80.7699 153.591 80.7699 146.091C80.7699 138.568 82.1676 132.136 84.963 126.795C87.7812 121.432 91.5994 117.33 96.4176 114.489C101.258 111.648 106.736 110.227 112.849 110.227C118.963 110.227 124.429 111.648 129.247 114.489C134.088 117.33 137.906 121.432 140.702 126.795C143.52 132.136 144.929 138.568 144.929 146.091ZM132.213 146.091C132.213 140.795 131.383 136.33 129.724 132.693C128.088 129.034 125.815 126.273 122.906 124.409C119.997 122.523 116.645 121.58 112.849 121.58C109.054 121.58 105.702 122.523 102.793 124.409C99.8835 126.273 97.5994 129.034 95.9403 132.693C94.3039 136.33 93.4858 140.795 93.4858 146.091C93.4858 151.386 94.3039 155.864 95.9403 159.523C97.5994 163.159 99.8835 165.92 102.793 167.807C105.702 169.67 109.054 170.602 112.849 170.602C116.645 170.602 119.997 169.67 122.906 167.807C125.815 165.92 128.088 163.159 129.724 159.523C131.383 155.864 132.213 151.386 132.213 146.091ZM203.659 133.477C203.091 131.636 202.307 129.989 201.307 128.534C200.33 127.057 199.148 125.795 197.761 124.75C196.398 123.705 194.83 122.92 193.057 122.398C191.284 121.852 189.352 121.58 187.261 121.58C183.511 121.58 180.17 122.523 177.239 124.409C174.307 126.295 172 129.068 170.318 132.727C168.659 136.364 167.83 140.795 167.83 146.023C167.83 151.295 168.659 155.761 170.318 159.42C171.977 163.08 174.284 165.864 177.239 167.773C180.193 169.659 183.625 170.602 187.534 170.602C191.08 170.602 194.148 169.92 196.739 168.557C199.352 167.193 201.364 165.261 202.773 162.761C204.182 160.239 204.886 157.284 204.886 153.898L207.75 154.341H188.795V144.455H217.125V152.841C217.125 158.818 215.852 163.989 213.307 168.352C210.761 172.716 207.261 176.08 202.807 178.443C198.352 180.784 193.239 181.955 187.466 181.955C181.034 181.955 175.386 180.511 170.523 177.625C165.682 174.716 161.898 170.591 159.17 165.25C156.466 159.886 155.114 153.523 155.114 146.159C155.114 140.523 155.909 135.489 157.5 131.057C159.114 126.625 161.364 122.864 164.25 119.773C167.136 116.659 170.523 114.295 174.409 112.682C178.295 111.045 182.523 110.227 187.091 110.227C190.955 110.227 194.557 110.795 197.898 111.932C201.239 113.045 204.205 114.636 206.795 116.705C209.409 118.773 211.557 121.227 213.239 124.068C214.92 126.909 216.023 130.045 216.545 133.477H203.659ZM291.741 146.091C291.741 153.614 290.332 160.057 287.514 165.42C284.719 170.761 280.901 174.852 276.06 177.693C271.241 180.534 265.776 181.955 259.662 181.955C253.548 181.955 248.071 180.534 243.23 177.693C238.412 174.83 234.594 170.727 231.776 165.386C228.98 160.023 227.582 153.591 227.582 146.091C227.582 138.568 228.98 132.136 231.776 126.795C234.594 121.432 238.412 117.33 243.23 114.489C248.071 111.648 253.548 110.227 259.662 110.227C265.776 110.227 271.241 111.648 276.06 114.489C280.901 117.33 284.719 121.432 287.514 126.795C290.332 132.136 291.741 138.568 291.741 146.091ZM279.026 146.091C279.026 140.795 278.196 136.33 276.537 132.693C274.901 129.034 272.628 126.273 269.719 124.409C266.81 122.523 263.457 121.58 259.662 121.58C255.866 121.58 252.514 122.523 249.605 124.409C246.696 126.273 244.412 129.034 242.753 132.693C241.116 136.33 240.298 140.795 240.298 146.091C240.298 151.386 241.116 155.864 242.753 159.523C244.412 163.159 246.696 165.92 249.605 167.807C252.514 169.67 255.866 170.602 259.662 170.602C263.457 170.602 266.81 169.67 269.719 167.807C272.628 165.92 274.901 163.159 276.537 159.523C278.196 155.864 279.026 151.386 279.026 146.091Z"/>
</mask>
<path d="M30.8863 181V111.182H43.5341V170.398H74.2841V181H30.8863ZM144.929 146.091C144.929 153.614 143.52 160.057 140.702 165.42C137.906 170.761 134.088 174.852 129.247 177.693C124.429 180.534 118.963 181.955 112.849 181.955C106.736 181.955 101.258 180.534 96.4176 177.693C91.5994 174.83 87.7812 170.727 84.963 165.386C82.1676 160.023 80.7699 153.591 80.7699 146.091C80.7699 138.568 82.1676 132.136 84.963 126.795C87.7812 121.432 91.5994 117.33 96.4176 114.489C101.258 111.648 106.736 110.227 112.849 110.227C118.963 110.227 124.429 111.648 129.247 114.489C134.088 117.33 137.906 121.432 140.702 126.795C143.52 132.136 144.929 138.568 144.929 146.091ZM132.213 146.091C132.213 140.795 131.383 136.33 129.724 132.693C128.088 129.034 125.815 126.273 122.906 124.409C119.997 122.523 116.645 121.58 112.849 121.58C109.054 121.58 105.702 122.523 102.793 124.409C99.8835 126.273 97.5994 129.034 95.9403 132.693C94.3039 136.33 93.4858 140.795 93.4858 146.091C93.4858 151.386 94.3039 155.864 95.9403 159.523C97.5994 163.159 99.8835 165.92 102.793 167.807C105.702 169.67 109.054 170.602 112.849 170.602C116.645 170.602 119.997 169.67 122.906 167.807C125.815 165.92 128.088 163.159 129.724 159.523C131.383 155.864 132.213 151.386 132.213 146.091ZM203.659 133.477C203.091 131.636 202.307 129.989 201.307 128.534C200.33 127.057 199.148 125.795 197.761 124.75C196.398 123.705 194.83 122.92 193.057 122.398C191.284 121.852 189.352 121.58 187.261 121.58C183.511 121.58 180.17 122.523 177.239 124.409C174.307 126.295 172 129.068 170.318 132.727C168.659 136.364 167.83 140.795 167.83 146.023C167.83 151.295 168.659 155.761 170.318 159.42C171.977 163.08 174.284 165.864 177.239 167.773C180.193 169.659 183.625 170.602 187.534 170.602C191.08 170.602 194.148 169.92 196.739 168.557C199.352 167.193 201.364 165.261 202.773 162.761C204.182 160.239 204.886 157.284 204.886 153.898L207.75 154.341H188.795V144.455H217.125V152.841C217.125 158.818 215.852 163.989 213.307 168.352C210.761 172.716 207.261 176.08 202.807 178.443C198.352 180.784 193.239 181.955 187.466 181.955C181.034 181.955 175.386 180.511 170.523 177.625C165.682 174.716 161.898 170.591 159.17 165.25C156.466 159.886 155.114 153.523 155.114 146.159C155.114 140.523 155.909 135.489 157.5 131.057C159.114 126.625 161.364 122.864 164.25 119.773C167.136 116.659 170.523 114.295 174.409 112.682C178.295 111.045 182.523 110.227 187.091 110.227C190.955 110.227 194.557 110.795 197.898 111.932C201.239 113.045 204.205 114.636 206.795 116.705C209.409 118.773 211.557 121.227 213.239 124.068C214.92 126.909 216.023 130.045 216.545 133.477H203.659ZM291.741 146.091C291.741 153.614 290.332 160.057 287.514 165.42C284.719 170.761 280.901 174.852 276.06 177.693C271.241 180.534 265.776 181.955 259.662 181.955C253.548 181.955 248.071 180.534 243.23 177.693C238.412 174.83 234.594 170.727 231.776 165.386C228.98 160.023 227.582 153.591 227.582 146.091C227.582 138.568 228.98 132.136 231.776 126.795C234.594 121.432 238.412 117.33 243.23 114.489C248.071 111.648 253.548 110.227 259.662 110.227C265.776 110.227 271.241 111.648 276.06 114.489C280.901 117.33 284.719 121.432 287.514 126.795C290.332 132.136 291.741 138.568 291.741 146.091ZM279.026 146.091C279.026 140.795 278.196 136.33 276.537 132.693C274.901 129.034 272.628 126.273 269.719 124.409C266.81 122.523 263.457 121.58 259.662 121.58C255.866 121.58 252.514 122.523 249.605 124.409C246.696 126.273 244.412 129.034 242.753 132.693C241.116 136.33 240.298 140.795 240.298 146.091C240.298 151.386 241.116 155.864 242.753 159.523C244.412 163.159 246.696 165.92 249.605 167.807C252.514 169.67 255.866 170.602 259.662 170.602C263.457 170.602 266.81 169.67 269.719 167.807C272.628 165.92 274.901 163.159 276.537 159.523C278.196 155.864 279.026 151.386 279.026 146.091Z" fill="white"/>
<path d="M30.8863 181H28.8863V183H30.8863V181ZM30.8863 111.182V109.182H28.8863V111.182H30.8863ZM43.5341 111.182H45.5341V109.182H43.5341V111.182ZM43.5341 170.398H41.5341V172.398H43.5341V170.398ZM74.2841 170.398H76.2841V168.398H74.2841V170.398ZM74.2841 181V183H76.2841V181H74.2841ZM32.8863 181V111.182H28.8863V181H32.8863ZM30.8863 113.182H43.5341V109.182H30.8863V113.182ZM41.5341 111.182V170.398H45.5341V111.182H41.5341ZM43.5341 172.398H74.2841V168.398H43.5341V172.398ZM72.2841 170.398V181H76.2841V170.398H72.2841ZM74.2841 179H30.8863V183H74.2841V179ZM140.702 165.42L138.931 164.49L138.93 164.493L140.702 165.42ZM129.247 177.693L128.235 175.968L128.231 175.97L129.247 177.693ZM96.4176 177.693L95.3957 179.413L95.4053 179.418L96.4176 177.693ZM84.963 165.386L83.1894 166.311L83.1942 166.32L84.963 165.386ZM84.963 126.795L83.1925 125.865L83.1911 125.868L84.963 126.795ZM96.4176 114.489L95.4053 112.764L95.4018 112.766L96.4176 114.489ZM129.247 114.489L128.231 116.211L128.235 116.214L129.247 114.489ZM140.702 126.795L138.928 127.72L138.933 127.729L140.702 126.795ZM129.724 132.693L127.899 133.51L127.902 133.517L127.905 133.523L129.724 132.693ZM122.906 124.409L121.818 126.087L121.827 126.093L122.906 124.409ZM102.793 124.409L103.871 126.093L103.881 126.087L102.793 124.409ZM95.9403 132.693L94.1188 131.867L94.1165 131.872L95.9403 132.693ZM95.9403 159.523L94.1146 160.339L94.1176 160.346L94.1207 160.353L95.9403 159.523ZM102.793 167.807L101.704 169.485L101.714 169.491L102.793 167.807ZM122.906 167.807L123.985 169.491L123.994 169.485L122.906 167.807ZM129.724 159.523L127.903 158.697L127.901 158.702L129.724 159.523ZM142.929 146.091C142.929 153.367 141.566 159.475 138.931 164.49L142.472 166.351C145.473 160.639 146.929 153.861 146.929 146.091H142.929ZM138.93 164.493C136.294 169.528 132.729 173.331 128.235 175.968L130.259 179.418C135.447 176.374 139.518 171.995 142.474 166.348L138.93 164.493ZM128.231 175.97C123.749 178.613 118.64 179.955 112.849 179.955V183.955C119.286 183.955 125.109 182.455 130.263 179.416L128.231 175.97ZM112.849 179.955C107.059 179.955 101.937 178.613 97.4299 175.968L95.4053 179.418C100.58 182.455 106.413 183.955 112.849 183.955V179.955ZM97.4394 175.974C92.9624 173.313 89.392 169.494 86.7319 164.453L83.1942 166.32C86.1704 171.96 90.2364 176.346 95.3958 179.412L97.4394 175.974ZM86.7366 164.462C84.1214 159.444 82.7699 153.345 82.7699 146.091H78.7699C78.7699 153.837 80.2138 160.601 83.1895 166.311L86.7366 164.462ZM82.7699 146.091C82.7699 138.813 84.122 132.715 86.735 127.723L83.1911 125.868C80.2132 131.557 78.7699 138.324 78.7699 146.091H82.7699ZM86.7335 127.726C89.3937 122.663 92.9622 118.848 97.4334 116.211L95.4018 112.766C90.2366 115.811 86.1688 120.201 83.1926 125.865L86.7335 127.726ZM97.4299 116.214C101.937 113.569 107.059 112.227 112.849 112.227V108.227C106.413 108.227 100.58 109.727 95.4053 112.764L97.4299 116.214ZM112.849 112.227C118.64 112.227 123.749 113.569 128.231 116.211L130.263 112.766C125.109 109.727 119.286 108.227 112.849 108.227V112.227ZM128.235 116.214C132.727 118.85 136.292 122.662 138.928 127.72L142.475 125.871C139.52 120.201 135.449 115.81 130.259 112.764L128.235 116.214ZM138.933 127.729C141.566 132.72 142.929 138.815 142.929 146.091H146.929C146.929 138.321 145.473 131.553 142.471 125.862L138.933 127.729ZM134.213 146.091C134.213 140.598 133.354 135.83 131.544 131.863L127.905 133.523C129.413 136.829 130.213 140.993 130.213 146.091H134.213ZM131.55 131.877C129.781 127.92 127.272 124.831 123.985 122.725L121.827 126.093C124.358 127.715 126.395 130.148 127.899 133.51L131.55 131.877ZM123.994 122.731C120.731 120.615 116.993 119.58 112.849 119.58V123.58C116.297 123.58 119.264 124.431 121.818 126.087L123.994 122.731ZM112.849 119.58C108.706 119.58 104.968 120.615 101.704 122.731L103.881 126.087C106.435 124.431 109.402 123.58 112.849 123.58V119.58ZM101.714 122.725C98.4292 124.829 95.9108 127.915 94.1188 131.867L97.7618 133.519C99.288 130.153 101.338 127.716 103.871 126.093L101.714 122.725ZM94.1165 131.872C92.3325 135.837 91.4858 140.601 91.4858 146.091H95.4858C95.4858 140.99 96.2754 136.822 97.7642 133.514L94.1165 131.872ZM91.4858 146.091C91.4858 151.582 92.3327 156.355 94.1146 160.339L97.7661 158.706C96.2752 155.372 95.4858 151.191 95.4858 146.091H91.4858ZM94.1207 160.353C95.9132 164.282 98.4293 167.361 101.704 169.485L103.881 166.129C101.338 164.48 99.2856 162.037 97.7599 158.693L94.1207 160.353ZM101.714 169.491C104.976 171.581 108.711 172.602 112.849 172.602V168.602C109.397 168.602 106.427 167.76 103.871 166.123L101.714 169.491ZM112.849 172.602C116.988 172.602 120.723 171.581 123.985 169.491L121.827 166.123C119.272 167.76 116.302 168.602 112.849 168.602V172.602ZM123.994 169.485C127.272 167.359 129.778 164.276 131.548 160.343L127.901 158.702C126.398 162.042 124.358 164.482 121.818 166.129L123.994 169.485ZM131.546 160.349C133.354 156.362 134.213 151.585 134.213 146.091H130.213C130.213 151.188 129.413 155.366 127.903 158.697L131.546 160.349ZM203.659 133.477L201.748 134.067L202.183 135.477H203.659V133.477ZM201.307 128.534L199.639 129.638L199.649 129.652L199.659 129.667L201.307 128.534ZM197.761 124.75L196.544 126.337L196.551 126.342L196.557 126.347L197.761 124.75ZM193.057 122.398L192.469 124.309L192.48 124.313L192.491 124.316L193.057 122.398ZM177.239 124.409L178.321 126.091L178.321 126.091L177.239 124.409ZM170.318 132.727L168.501 131.892L168.499 131.897L170.318 132.727ZM170.318 159.42L168.497 160.246L168.497 160.246L170.318 159.42ZM177.239 167.773L176.153 169.453L176.162 169.458L177.239 167.773ZM196.739 168.557L195.813 166.784L195.807 166.787L196.739 168.557ZM202.773 162.761L204.515 163.743L204.519 163.737L202.773 162.761ZM204.886 153.898L205.192 151.921L202.886 151.564V153.898H204.886ZM207.75 154.341V156.341L208.056 152.364L207.75 154.341ZM188.795 154.341H186.795V156.341H188.795V154.341ZM188.795 144.455V142.455H186.795V144.455H188.795ZM217.125 144.455H219.125V142.455H217.125V144.455ZM213.307 168.352L215.034 169.36L215.034 169.36L213.307 168.352ZM202.807 178.443L203.737 180.214L203.744 180.21L202.807 178.443ZM170.523 177.625L169.493 179.339L169.502 179.345L170.523 177.625ZM159.17 165.25L157.385 166.151L157.389 166.16L159.17 165.25ZM157.5 131.057L155.621 130.373L155.618 130.381L157.5 131.057ZM164.25 119.773L165.712 121.138L165.717 121.132L164.25 119.773ZM174.409 112.682L175.176 114.529L175.185 114.525L174.409 112.682ZM197.898 111.932L197.254 113.825L197.265 113.829L197.898 111.932ZM206.795 116.705L205.548 118.268L205.554 118.273L206.795 116.705ZM213.239 124.068L214.96 123.049L214.96 123.049L213.239 124.068ZM216.545 133.477V135.477H218.873L218.523 133.176L216.545 133.477ZM205.57 132.887C204.948 130.871 204.079 129.037 202.955 127.401L199.659 129.667C200.534 130.94 201.234 132.402 201.748 134.067L205.57 132.887ZM202.975 127.431C201.875 125.768 200.537 124.338 198.966 123.153L196.557 126.347C197.758 127.253 198.784 128.346 199.639 129.638L202.975 127.431ZM198.978 123.163C197.405 121.957 195.613 121.066 193.622 120.479L192.491 124.316C194.046 124.775 195.39 125.452 196.544 126.337L198.978 123.163ZM193.645 120.486C191.659 119.875 189.527 119.58 187.261 119.58V123.58C189.178 123.58 190.909 123.829 192.469 124.309L193.645 120.486ZM187.261 119.58C183.158 119.58 179.436 120.617 176.156 122.727L178.321 126.091C180.905 124.428 183.865 123.58 187.261 123.58V119.58ZM176.156 122.727C172.857 124.85 170.317 127.941 168.501 131.892L172.135 133.563C173.683 130.195 175.757 127.741 178.321 126.091L176.156 122.727ZM168.499 131.897C166.69 135.861 165.83 140.593 165.83 146.023H169.83C169.83 140.998 170.628 136.866 172.138 133.557L168.499 131.897ZM165.83 146.023C165.83 151.495 166.689 156.26 168.497 160.246L172.14 158.595C170.629 155.263 169.83 151.096 169.83 146.023H165.83ZM168.497 160.246C170.291 164.204 172.832 167.307 176.153 169.453L178.324 166.093C175.736 164.42 173.663 161.955 172.14 158.595L168.497 160.246ZM176.162 169.458C179.475 171.573 183.289 172.602 187.534 172.602V168.602C183.961 168.602 180.912 167.745 178.315 166.087L176.162 169.458ZM187.534 172.602C191.336 172.602 194.737 171.87 197.67 170.327L195.807 166.787C193.558 167.971 190.823 168.602 187.534 168.602V172.602ZM197.664 170.33C200.611 168.792 202.91 166.59 204.515 163.743L201.03 161.779C199.817 163.933 198.094 165.594 195.813 166.784L197.664 170.33ZM204.519 163.737C206.121 160.868 206.886 157.567 206.886 153.898H202.886C202.886 157.002 202.243 159.609 201.027 161.786L204.519 163.737ZM204.58 155.874L207.444 156.317L208.056 152.364L205.192 151.921L204.58 155.874ZM207.75 152.341H188.795V156.341H207.75V152.341ZM190.795 154.341V144.455H186.795V154.341H190.795ZM188.795 146.455H217.125V142.455H188.795V146.455ZM215.125 144.455V152.841H219.125V144.455H215.125ZM215.125 152.841C215.125 158.529 213.916 163.339 211.579 167.345L215.034 169.36C217.788 164.639 219.125 159.107 219.125 152.841H215.125ZM211.579 167.345C209.221 171.387 205.994 174.488 201.869 176.677L203.744 180.21C208.528 177.671 212.302 174.045 215.034 169.36L211.579 167.345ZM201.876 176.673C197.749 178.842 192.962 179.955 187.466 179.955V183.955C193.515 183.955 198.956 182.726 203.737 180.214L201.876 176.673ZM187.466 179.955C181.343 179.955 176.058 178.584 171.543 175.905L169.502 179.345C174.715 182.439 180.725 183.955 187.466 183.955V179.955ZM171.553 175.911C167.053 173.206 163.52 169.37 160.952 164.34L157.389 166.16C160.276 171.812 164.311 176.225 169.493 179.339L171.553 175.911ZM160.956 164.35C158.421 159.321 157.114 153.279 157.114 146.159H153.114C153.114 153.766 154.511 160.452 157.385 166.151L160.956 164.35ZM157.114 146.159C157.114 140.709 157.883 135.91 159.382 131.733L155.618 130.381C153.935 135.068 153.114 140.337 153.114 146.159H157.114ZM159.379 131.741C160.912 127.533 163.029 124.011 165.712 121.138L162.788 118.408C159.698 121.717 157.316 125.717 155.621 130.373L159.379 131.741ZM165.717 121.132C168.409 118.228 171.558 116.031 175.176 114.529L173.642 110.835C169.488 112.56 165.863 115.09 162.783 118.413L165.717 121.132ZM175.185 114.525C178.806 113.001 182.767 112.227 187.091 112.227V108.227C182.279 108.227 177.785 109.09 173.633 110.839L175.185 114.525ZM187.091 112.227C190.756 112.227 194.139 112.766 197.254 113.825L198.542 110.038C194.975 108.825 191.153 108.227 187.091 108.227V112.227ZM197.265 113.829C200.397 114.873 203.152 116.355 205.548 118.268L208.043 115.142C205.257 112.918 202.08 111.218 198.53 110.034L197.265 113.829ZM205.554 118.273C207.978 120.19 209.962 122.459 211.518 125.087L214.96 123.049C213.152 119.995 210.841 117.355 208.036 115.136L205.554 118.273ZM211.518 125.087C213.062 127.696 214.082 130.587 214.568 133.778L218.523 133.176C217.963 129.504 216.779 126.122 214.96 123.049L211.518 125.087ZM216.545 131.477H203.659V135.477H216.545V131.477ZM287.514 165.42L285.744 164.49L285.742 164.493L287.514 165.42ZM276.06 177.693L275.047 175.968L275.044 175.97L276.06 177.693ZM243.23 177.693L242.208 179.413L242.218 179.418L243.23 177.693ZM231.776 165.386L230.002 166.311L230.007 166.32L231.776 165.386ZM231.776 126.795L230.005 125.865L230.004 125.868L231.776 126.795ZM243.23 114.489L242.218 112.764L242.214 112.766L243.23 114.489ZM276.06 114.489L275.044 116.211L275.047 116.214L276.06 114.489ZM287.514 126.795L285.741 127.72L285.745 127.729L287.514 126.795ZM276.537 132.693L274.711 133.51L274.714 133.517L274.717 133.523L276.537 132.693ZM269.719 124.409L268.631 126.087L268.64 126.093L269.719 124.409ZM249.605 124.409L250.684 126.093L250.693 126.087L249.605 124.409ZM242.753 132.693L240.931 131.867L240.929 131.872L242.753 132.693ZM242.753 159.523L240.927 160.339L240.93 160.346L240.933 160.353L242.753 159.523ZM249.605 167.807L248.517 169.485L248.526 169.491L249.605 167.807ZM269.719 167.807L270.798 169.491L270.807 169.485L269.719 167.807ZM276.537 159.523L274.715 158.697L274.713 158.702L276.537 159.523ZM289.741 146.091C289.741 153.367 288.379 159.475 285.744 164.49L289.285 166.351C292.286 160.639 293.741 153.861 293.741 146.091H289.741ZM285.742 164.493C283.107 169.528 279.541 173.331 275.047 175.968L277.072 179.418C282.26 176.374 286.33 171.995 289.286 166.348L285.742 164.493ZM275.044 175.97C270.562 178.613 265.453 179.955 259.662 179.955V183.955C266.099 183.955 271.921 182.455 277.075 179.416L275.044 175.97ZM259.662 179.955C253.871 179.955 248.749 178.613 244.242 175.968L242.218 179.418C247.393 182.455 253.225 183.955 259.662 183.955V179.955ZM244.252 175.974C239.775 173.313 236.205 169.494 233.544 164.453L230.007 166.32C232.983 171.96 237.049 176.346 242.208 179.412L244.252 175.974ZM233.549 164.462C230.934 159.444 229.582 153.345 229.582 146.091H225.582C225.582 153.837 227.026 160.601 230.002 166.311L233.549 164.462ZM229.582 146.091C229.582 138.813 230.934 132.715 233.547 127.723L230.004 125.868C227.026 131.557 225.582 138.324 225.582 146.091H229.582ZM233.546 127.726C236.206 122.663 239.775 118.848 244.246 116.211L242.214 112.766C237.049 115.811 232.981 120.201 230.005 125.865L233.546 127.726ZM244.242 116.214C248.749 113.569 253.871 112.227 259.662 112.227V108.227C253.225 108.227 247.393 109.727 242.218 112.764L244.242 116.214ZM259.662 112.227C265.453 112.227 270.562 113.569 275.044 116.211L277.075 112.766C271.921 109.727 266.099 108.227 259.662 108.227V112.227ZM275.047 116.214C279.539 118.85 283.105 122.662 285.741 127.72L289.288 125.871C286.333 120.201 282.262 115.81 277.072 112.764L275.047 116.214ZM285.745 127.729C288.379 132.72 289.741 138.815 289.741 146.091H293.741C293.741 138.321 292.286 131.553 289.283 125.862L285.745 127.729ZM281.026 146.091C281.026 140.598 280.166 135.83 278.356 131.863L274.717 133.523C276.226 136.829 277.026 140.993 277.026 146.091H281.026ZM278.363 131.877C276.593 127.92 274.085 124.831 270.798 122.725L268.64 126.093C271.171 127.715 273.208 130.148 274.711 133.51L278.363 131.877ZM270.807 122.731C267.543 120.615 263.806 119.58 259.662 119.58V123.58C263.109 123.58 266.076 124.431 268.631 126.087L270.807 122.731ZM259.662 119.58C255.518 119.58 251.781 120.615 248.517 122.731L250.693 126.087C253.248 124.431 256.215 123.58 259.662 123.58V119.58ZM248.526 122.725C245.242 124.829 242.723 127.915 240.931 131.867L244.574 133.519C246.1 130.153 248.15 127.716 250.684 126.093L248.526 122.725ZM240.929 131.872C239.145 135.837 238.298 140.601 238.298 146.091H242.298C242.298 140.99 243.088 136.822 244.577 133.514L240.929 131.872ZM238.298 146.091C238.298 151.582 239.145 156.355 240.927 160.339L244.579 158.706C243.088 155.372 242.298 151.191 242.298 146.091H238.298ZM240.933 160.353C242.726 164.282 245.242 167.361 248.517 169.485L250.693 166.129C248.15 164.48 246.098 162.037 244.572 158.693L240.933 160.353ZM248.526 169.491C251.789 171.581 255.523 172.602 259.662 172.602V168.602C256.21 168.602 253.24 167.76 250.684 166.123L248.526 169.491ZM259.662 172.602C263.801 172.602 267.535 171.581 270.798 169.491L268.64 166.123C266.084 167.76 263.114 168.602 259.662 168.602V172.602ZM270.807 169.485C274.085 167.359 276.591 164.276 278.361 160.343L274.713 158.702C273.21 162.042 271.171 164.482 268.631 166.129L270.807 169.485ZM278.358 160.349C280.166 156.362 281.026 151.585 281.026 146.091H277.026C277.026 151.188 276.226 155.366 274.715 158.697L278.358 160.349Z" fill="black" mask="url(#path-11-outside-1_6_234)"/>
</g>
<defs>
<filter id="filter0_f_6_234" x="16" y="0" width="285" height="285" filterUnits="userSpaceOnUse" color-interpolation-filters="sRGB">
<feFlood flood-opacity="0" result="BackgroundImageFix"/>
<feBlend mode="normal" in="SourceGraphic" in2="BackgroundImageFix" result="shape"/>
<feGaussianBlur stdDeviation="1" result="effect1_foregroundBlur_6_234"/>
</filter>
<filter id="filter1_f_6_234" x="23.3066" y="7.30661" width="271.387" height="271.387" filterUnits="userSpaceOnUse" color-interpolation-filters="sRGB">
<feFlood flood-opacity="0" result="BackgroundImageFix"/>
<feBlend mode="normal" in="SourceGraphic" in2="BackgroundImageFix" result="shape"/>
<feGaussianBlur stdDeviation="1" result="effect1_foregroundBlur_6_234"/>
</filter>
<filter id="filter2_d_6_234" x="18.3066" y="2.30661" width="281.387" height="281.387" filterUnits="userSpaceOnUse" color-interpolation-filters="sRGB">
<feFlood flood-opacity="0" result="BackgroundImageFix"/>
<feColorMatrix in="SourceAlpha" type="matrix" values="0 0 0 0 0 0 0 0 0 0 0 0 0 0 0 0 0 0 127 0" result="hardAlpha"/>
<feMorphology radius="3" operator="dilate" in="SourceAlpha" result="effect1_dropShadow_6_234"/>
<feOffset/>
<feGaussianBlur stdDeviation="2"/>
<feComposite in2="hardAlpha" operator="out"/>
<feColorMatrix type="matrix" values="0 0 0 0 0 0 0 0 0 0 0 0 0 0 0 0 0 0 0.25 0"/>
<feBlend mode="normal" in2="BackgroundImageFix" result="effect1_dropShadow_6_234"/>
<feBlend mode="normal" in="SourceGraphic" in2="effect1_dropShadow_6_234" result="shape"/>
</filter>
<filter id="filter3_i_6_234" x="40.8629" y="24.863" width="236.274" height="236.274" filterUnits="userSpaceOnUse" color-interpolation-filters="sRGB">
<feFlood flood-opacity="0" result="BackgroundImageFix"/>
<feBlend mode="normal" in="SourceGraphic" in2="BackgroundImageFix" result="shape"/>
<feColorMatrix in="SourceAlpha" type="matrix" values="0 0 0 0 0 0 0 0 0 0 0 0 0 0 0 0 0 0 127 0" result="hardAlpha"/>
<feMorphology radius="8" operator="erode" in="SourceAlpha" result="effect1_innerShadow_6_234"/>
<feOffset/>
<feGaussianBlur stdDeviation="2"/>
<feComposite in2="hardAlpha" operator="arithmetic" k2="-1" k3="1"/>
<feColorMatrix type="matrix" values="0 0 0 0 0 0 0 0 0 0 0 0 0 0 0 0 0 0 0.25 0"/>
<feBlend mode="normal" in2="shape" result="effect1_innerShadow_6_234"/>
</filter>
<filter id="filter4_f_6_234" x="98.0001" y="82.0002" width="121.239" height="121.239" filterUnits="userSpaceOnUse" color-interpolation-filters="sRGB">
<feFlood flood-opacity="0" result="BackgroundImageFix"/>
<feBlend mode="normal" in="SourceGraphic" in2="BackgroundImageFix" result="shape"/>
<feGaussianBlur stdDeviation="1" result="effect1_foregroundBlur_6_234"/>
</filter>
<filter id="filter5_d_6_234" x="93.0001" y="77.0002" width="131.239" height="131.239" filterUnits="userSpaceOnUse" color-interpolation-filters="sRGB">
<feFlood flood-opacity="0" result="BackgroundImageFix"/>
<feColorMatrix in="SourceAlpha" type="matrix" values="0 0 0 0 0 0 0 0 0 0 0 0 0 0 0 0 0 0 127 0" result="hardAlpha"/>
<feMorphology radius="3" operator="dilate" in="SourceAlpha" result="effect1_dropShadow_6_234"/>
<feOffset/>
<feGaussianBlur stdDeviation="2"/>
<feComposite in2="hardAlpha" operator="out"/>
<feColorMatrix type="matrix" values="0 0 0 0 0 0 0 0 0 0 0 0 0 0 0 0 0 0 0.25 0"/>
<feBlend mode="normal" in2="BackgroundImageFix" result="effect1_dropShadow_6_234"/>
<feBlend mode="normal" in="SourceGraphic" in2="effect1_dropShadow_6_234" result="shape"/>
</filter>
<filter id="filter6_i_6_234" x="106.717" y="90.7171" width="103.806" height="103.806" filterUnits="userSpaceOnUse" color-interpolation-filters="sRGB">
<feFlood flood-opacity="0" result="BackgroundImageFix"/>
<feBlend mode="normal" in="SourceGraphic" in2="BackgroundImageFix" result="shape"/>
<feColorMatrix in="SourceAlpha" type="matrix" values="0 0 0 0 0 0 0 0 0 0 0 0 0 0 0 0 0 0 127 0" result="hardAlpha"/>
<feMorphology radius="8" operator="erode" in="SourceAlpha" result="effect1_innerShadow_6_234"/>
<feOffset/>
<feGaussianBlur stdDeviation="2"/>
<feComposite in2="hardAlpha" operator="arithmetic" k2="-1" k3="1"/>
<feColorMatrix type="matrix" values="0 0 0 0 0 0 0 0 0 0 0 0 0 0 0 0 0 0 0.25 0"/>
<feBlend mode="normal" in2="shape" result="effect1_innerShadow_6_234"/>
</filter>
<filter id="filter7_di_6_234" x="0.88633" y="90.2273" width="320.855" height="131.727" filterUnits="userSpaceOnUse" color-interpolation-filters="sRGB">
<feFlood flood-opacity="0" result="BackgroundImageFix"/>
<feColorMatrix in="SourceAlpha" type="matrix" values="0 0 0 0 0 0 0 0 0 0 0 0 0 0 0 0 0 0 127 0" result="hardAlpha"/>
<feOffset dy="10"/>
<feGaussianBlur stdDeviation="15"/>
<feComposite in2="hardAlpha" operator="out"/>
<feColorMatrix type="matrix" values="0 0 0 0 0 0 0 0 0 0 0 0 0 0 0 0 0 0 0.4 0"/>
<feBlend mode="normal" in2="BackgroundImageFix" result="effect1_dropShadow_6_234"/>
<feBlend mode="normal" in="SourceGraphic" in2="effect1_dropShadow_6_234" result="shape"/>
<feColorMatrix in="SourceAlpha" type="matrix" values="0 0 0 0 0 0 0 0 0 0 0 0 0 0 0 0 0 0 127 0" result="hardAlpha"/>
<feOffset/>
<feGaussianBlur stdDeviation="2"/>
<feComposite in2="hardAlpha" operator="arithmetic" k2="-1" k3="1"/>
<feColorMatrix type="matrix" values="0 0 0 0 0 0 0 0 0 0 0 0 0 0 0 0 0 0 0.25 0"/>
<feBlend mode="normal" in2="shape" result="effect2_innerShadow_6_234"/>
</filter>
</defs>
</svg>
