<svg width="81" height="52" viewBox="0 0 81 52" fill="none" xmlns="http://www.w3.org/2000/svg">
<path d="M0 6C0 2.68629 2.68629 0 6 0H75C78.3137 0 81 2.68629 81 6V6C81 9.31371 78.3137 12 75 12H6C2.68629 12 0 9.31371 0 6V6Z" fill="white"/>
<path fill-rule="evenodd" clip-rule="evenodd" d="M75 2H6C3.79086 2 2 3.79086 2 6C2 8.20914 3.79086 10 6 10H75C77.2091 10 79 8.20914 79 6C79 3.79086 77.2091 2 75 2ZM6 0C2.68629 0 0 2.68629 0 6C0 9.31371 2.68629 12 6 12H75C78.3137 12 81 9.31371 81 6C81 2.68629 78.3137 0 75 0H6Z" fill="black"/>
<path d="M0 26C0 22.6863 2.68629 20 6 20H75C78.3137 20 81 22.6863 81 26V26C81 29.3137 78.3137 32 75 32H6C2.68629 32 0 29.3137 0 26V26Z" fill="white"/>
<path fill-rule="evenodd" clip-rule="evenodd" d="M75 22H6C3.79086 22 2 23.7909 2 26C2 28.2091 3.79086 30 6 30H75C77.2091 30 79 28.2091 79 26C79 23.7909 77.2091 22 75 22ZM6 20C2.68629 20 0 22.6863 0 26C0 29.3137 2.68629 32 6 32H75C78.3137 32 81 29.3137 81 26C81 22.6863 78.3137 20 75 20H6Z" fill="black"/>
<path d="M0 46C0 42.6863 2.68629 40 6 40H75C78.3137 40 81 42.6863 81 46V46C81 49.3137 78.3137 52 75 52H6C2.68629 52 0 49.3137 0 46V46Z" fill="white"/>
<path fill-rule="evenodd" clip-rule="evenodd" d="M75 42H6C3.79086 42 2 43.7909 2 46C2 48.2091 3.79086 50 6 50H75C77.2091 50 79 48.2091 79 46C79 43.7909 77.2091 42 75 42ZM6 40C2.68629 40 0 42.6863 0 46C0 49.3137 2.68629 52 6 52H75C78.3137 52 81 49.3137 81 46C81 42.6863 78.3137 40 75 40H6Z" fill="black"/>
</svg>
