<svg width="112" height="78" viewBox="0 0 112 78" fill="none" xmlns="http://www.w3.org/2000/svg">
<g filter="url(#filter0_i_6_249)">
<g filter="url(#filter1_i_6_249)">
<path d="M0 20C0 8.9543 8.95431 0 20 0H92C103.046 0 112 8.95431 112 20V58C112 69.0457 103.046 78 92 78H20C8.9543 78 0 69.0457 0 58V20Z" fill="#57EAFE"/>
</g>
<path d="M15 19C15 15.6863 17.6863 13 21 13H90C93.3137 13 96 15.6863 96 19V19C96 22.3137 93.3137 25 90 25H21C17.6863 25 15 22.3137 15 19V19Z" fill="white"/>
<path fill-rule="evenodd" clip-rule="evenodd" d="M90 15H21C18.7909 15 17 16.7909 17 19C17 21.2091 18.7909 23 21 23H90C92.2091 23 94 21.2091 94 19C94 16.7909 92.2091 15 90 15ZM21 13C17.6863 13 15 15.6863 15 19C15 22.3137 17.6863 25 21 25H90C93.3137 25 96 22.3137 96 19C96 15.6863 93.3137 13 90 13H21Z" fill="black"/>
<path d="M15 39C15 35.6863 17.6863 33 21 33H90C93.3137 33 96 35.6863 96 39V39C96 42.3137 93.3137 45 90 45H21C17.6863 45 15 42.3137 15 39V39Z" fill="white"/>
<path fill-rule="evenodd" clip-rule="evenodd" d="M90 35H21C18.7909 35 17 36.7909 17 39C17 41.2091 18.7909 43 21 43H90C92.2091 43 94 41.2091 94 39C94 36.7909 92.2091 35 90 35ZM21 33C17.6863 33 15 35.6863 15 39C15 42.3137 17.6863 45 21 45H90C93.3137 45 96 42.3137 96 39C96 35.6863 93.3137 33 90 33H21Z" fill="black"/>
<path d="M15 59C15 55.6863 17.6863 53 21 53H90C93.3137 53 96 55.6863 96 59V59C96 62.3137 93.3137 65 90 65H21C17.6863 65 15 62.3137 15 59V59Z" fill="white"/>
<path fill-rule="evenodd" clip-rule="evenodd" d="M90 55H21C18.7909 55 17 56.7909 17 59C17 61.2091 18.7909 63 21 63H90C92.2091 63 94 61.2091 94 59C94 56.7909 92.2091 55 90 55ZM21 53C17.6863 53 15 55.6863 15 59C15 62.3137 17.6863 65 21 65H90C93.3137 65 96 62.3137 96 59C96 55.6863 93.3137 53 90 53H21Z" fill="black"/>
</g>
<defs>
<filter id="filter0_i_6_249" x="-4" y="-4" width="116" height="82" filterUnits="userSpaceOnUse" color-interpolation-filters="sRGB">
<feFlood flood-opacity="0" result="BackgroundImageFix"/>
<feBlend mode="normal" in="SourceGraphic" in2="BackgroundImageFix" result="shape"/>
<feColorMatrix in="SourceAlpha" type="matrix" values="0 0 0 0 0 0 0 0 0 0 0 0 0 0 0 0 0 0 127 0" result="hardAlpha"/>
<feOffset dx="-5" dy="-5"/>
<feGaussianBlur stdDeviation="2"/>
<feComposite in2="hardAlpha" operator="arithmetic" k2="-1" k3="1"/>
<feColorMatrix type="matrix" values="0 0 0 0 0 0 0 0 0 0 0 0 0 0 0 0 0 0 0.25 0"/>
<feBlend mode="normal" in2="shape" result="effect1_innerShadow_6_249"/>
</filter>
<filter id="filter1_i_6_249" x="0" y="0" width="112" height="82" filterUnits="userSpaceOnUse" color-interpolation-filters="sRGB">
<feFlood flood-opacity="0" result="BackgroundImageFix"/>
<feBlend mode="normal" in="SourceGraphic" in2="BackgroundImageFix" result="shape"/>
<feColorMatrix in="SourceAlpha" type="matrix" values="0 0 0 0 0 0 0 0 0 0 0 0 0 0 0 0 0 0 127 0" result="hardAlpha"/>
<feOffset dy="4"/>
<feGaussianBlur stdDeviation="2"/>
<feComposite in2="hardAlpha" operator="arithmetic" k2="-1" k3="1"/>
<feColorMatrix type="matrix" values="0 0 0 0 0 0 0 0 0 0 0 0 0 0 0 0 0 0 0.25 0"/>
<feBlend mode="normal" in2="shape" result="effect1_innerShadow_6_249"/>
</filter>
</defs>
</svg>
