<svg width="90" height="93" viewBox="0 0 90 93" fill="none" xmlns="http://www.w3.org/2000/svg">
<g filter="url(#filter0_i_4_41)">
<ellipse cx="45" cy="46.5" rx="45" ry="46.5" fill="#57EAFE"/>
</g>
<g filter="url(#filter1_d_4_41)">
<rect x="31.5" y="13.5" width="3.66667" height="17" rx="1.83333" fill="#D9D9D9" stroke="#0B91AF"/>
<path d="M36 22.8333H54C56.4853 22.8333 58.5 24.8481 58.5 27.3333V49.6926V70.6667C58.5 73.152 56.4853 75.1667 54 75.1667H36C33.5147 75.1667 31.5 73.152 31.5 70.6667V27.3333C31.5 24.8481 33.5147 22.8333 36 22.8333Z" fill="#D9D9D9" stroke="#0B91AF"/>
<rect x="36.1667" y="28.1667" width="18.3333" height="14.3333" rx="4.5" fill="#2AD2D2" fill-opacity="0.48" stroke="#0B91AF"/>
<rect x="34.3333" y="48.3333" width="5.33333" height="5.33333" fill="#585757"/>
<rect x="42.3333" y="48.3333" width="5.33333" height="5.33333" fill="#585757"/>
<rect x="50.3333" y="48.3333" width="5.33333" height="5.33333" fill="#585757"/>
<rect x="34.3333" y="56.3333" width="5.33333" height="5.33333" fill="#585757"/>
<rect x="42.3333" y="56.3333" width="5.33333" height="5.33333" fill="#585757"/>
<rect x="50.3333" y="56.3333" width="5.33333" height="5.33333" fill="#585757"/>
<rect x="34.3333" y="64.3333" width="5.33333" height="5.33333" fill="#585757"/>
<rect x="42.3333" y="64.3333" width="5.33333" height="5.33333" fill="#585757"/>
<rect x="50.3333" y="64.3333" width="5.33333" height="5.33333" fill="#585757"/>
</g>
<defs>
<filter id="filter0_i_4_41" x="0" y="0" width="90" height="93" filterUnits="userSpaceOnUse" color-interpolation-filters="sRGB">
<feFlood flood-opacity="0" result="BackgroundImageFix"/>
<feBlend mode="normal" in="SourceGraphic" in2="BackgroundImageFix" result="shape"/>
<feColorMatrix in="SourceAlpha" type="matrix" values="0 0 0 0 0 0 0 0 0 0 0 0 0 0 0 0 0 0 127 0" result="hardAlpha"/>
<feMorphology radius="2" operator="erode" in="SourceAlpha" result="effect1_innerShadow_4_41"/>
<feOffset/>
<feGaussianBlur stdDeviation="2"/>
<feComposite in2="hardAlpha" operator="arithmetic" k2="-1" k3="1"/>
<feColorMatrix type="matrix" values="0 0 0 0 0 0 0 0 0 0 0 0 0 0 0 0 0 0 0.25 0"/>
<feBlend mode="normal" in2="shape" result="effect1_innerShadow_4_41"/>
</filter>
<filter id="filter1_d_4_41" x="27" y="13" width="36" height="71.6667" filterUnits="userSpaceOnUse" color-interpolation-filters="sRGB">
<feFlood flood-opacity="0" result="BackgroundImageFix"/>
<feColorMatrix in="SourceAlpha" type="matrix" values="0 0 0 0 0 0 0 0 0 0 0 0 0 0 0 0 0 0 127 0" result="hardAlpha"/>
<feOffset dy="5"/>
<feGaussianBlur stdDeviation="2"/>
<feComposite in2="hardAlpha" operator="out"/>
<feColorMatrix type="matrix" values="0 0 0 0 0 0 0 0 0 0 0 0 0 0 0 0 0 0 0.25 0"/>
<feBlend mode="normal" in2="BackgroundImageFix" result="effect1_dropShadow_4_41"/>
<feBlend mode="normal" in="SourceGraphic" in2="effect1_dropShadow_4_41" result="shape"/>
</filter>
</defs>
</svg>
