<svg width="173" height="44" viewBox="0 0 173 44" fill="none" xmlns="http://www.w3.org/2000/svg">
<g filter="url(#filter0_i_6_183)">
<rect y="3" width="173" height="39" rx="19.5" fill="#57EAFE"/>
</g>
<path d="M57.8111 16.0156C57.6918 14.8991 57.1889 14.0298 56.3026 13.4077C55.4247 12.7855 54.2827 12.4744 52.8764 12.4744C51.8878 12.4744 51.0398 12.6236 50.3324 12.9219C49.625 13.2202 49.0838 13.625 48.7088 14.1364C48.3338 14.6477 48.142 15.2315 48.1335 15.8878C48.1335 16.4332 48.2571 16.9062 48.5043 17.3068C48.7599 17.7074 49.1051 18.0483 49.5398 18.3295C49.9744 18.6023 50.456 18.8324 50.9844 19.0199C51.5128 19.2074 52.0455 19.3651 52.5824 19.4929L55.0369 20.1065C56.0256 20.3366 56.9759 20.6477 57.8878 21.0398C58.8082 21.4318 59.6307 21.9261 60.3551 22.5227C61.0881 23.1193 61.6676 23.8395 62.0938 24.6832C62.5199 25.527 62.733 26.5156 62.733 27.6491C62.733 29.1832 62.3409 30.5341 61.5568 31.7017C60.7727 32.8608 59.6392 33.7685 58.1562 34.4247C56.6818 35.0724 54.8963 35.3963 52.7997 35.3963C50.7628 35.3963 48.9943 35.081 47.4943 34.4503C46.0028 33.8196 44.8352 32.8991 43.9915 31.6889C43.1563 30.4787 42.7045 29.0043 42.6364 27.2656H47.3026C47.3707 28.1776 47.652 28.9361 48.1463 29.5412C48.6406 30.1463 49.2841 30.598 50.0767 30.8963C50.8778 31.1946 51.7727 31.3438 52.7614 31.3438C53.7926 31.3438 54.696 31.1903 55.4716 30.8835C56.2557 30.5682 56.8693 30.1335 57.3125 29.5795C57.7557 29.017 57.9815 28.3608 57.9901 27.6108C57.9815 26.929 57.7813 26.3665 57.3892 25.9233C56.9972 25.4716 56.4474 25.0966 55.7401 24.7983C55.0412 24.4915 54.223 24.2187 53.2855 23.9801L50.3068 23.2131C48.1506 22.6591 46.446 21.8196 45.1932 20.6946C43.9489 19.5611 43.3267 18.0568 43.3267 16.1818C43.3267 14.6392 43.7443 13.2884 44.5795 12.1293C45.4233 10.9702 46.5696 10.071 48.0185 9.43182C49.4673 8.78409 51.108 8.46023 52.9403 8.46023C54.7983 8.46023 56.4261 8.78409 57.8239 9.43182C59.2301 10.071 60.3338 10.9616 61.1349 12.1037C61.9361 13.2372 62.3494 14.5412 62.375 16.0156H57.8111ZM75.4499 35.3835C73.4812 35.3835 71.7809 34.9744 70.3491 34.1562C68.9258 33.3295 67.8306 32.1619 67.0636 30.6534C66.2965 29.1364 65.913 27.3509 65.913 25.2969C65.913 23.277 66.2965 21.5043 67.0636 19.9787C67.8391 18.4446 68.9215 17.2514 70.3107 16.3991C71.6999 15.5384 73.332 15.108 75.207 15.108C76.4173 15.108 77.5593 15.304 78.6332 15.696C79.7156 16.0795 80.6701 16.6761 81.4968 17.4858C82.332 18.2955 82.9883 19.3267 83.4656 20.5795C83.9428 21.8239 84.1815 23.3068 84.1815 25.0284V26.4474H68.0863V23.3281H79.7454C79.7369 22.4418 79.5451 21.6534 79.1701 20.9631C78.7951 20.2642 78.271 19.7145 77.5977 19.3139C76.9329 18.9134 76.1573 18.7131 75.271 18.7131C74.3249 18.7131 73.494 18.9432 72.7781 19.4034C72.0621 19.8551 71.5039 20.4517 71.1033 21.1932C70.7113 21.9261 70.511 22.7315 70.5025 23.6094V26.3324C70.5025 27.4744 70.7113 28.4545 71.1289 29.2727C71.5465 30.0824 72.1303 30.7045 72.8803 31.1392C73.6303 31.5653 74.5082 31.7784 75.5139 31.7784C76.1871 31.7784 76.7965 31.6847 77.342 31.4972C77.8874 31.3011 78.3604 31.0156 78.761 30.6406C79.1616 30.2656 79.4641 29.8011 79.6687 29.2472L83.9897 29.733C83.717 30.875 83.1971 31.8722 82.43 32.7244C81.6715 33.5682 80.6999 34.2244 79.5153 34.6932C78.3306 35.1534 76.9755 35.3835 75.4499 35.3835ZM92.7244 23.4943V35H88.0966V15.3636H92.5199V18.7003H92.75C93.2017 17.6009 93.9219 16.7273 94.9105 16.0795C95.9077 15.4318 97.1392 15.108 98.6051 15.108C99.9602 15.108 101.141 15.3977 102.146 15.9773C103.161 16.5568 103.945 17.3963 104.499 18.4957C105.061 19.5952 105.338 20.929 105.33 22.4972V35H100.702V23.2131C100.702 21.9006 100.361 20.8736 99.679 20.1321C99.0057 19.3906 98.0724 19.0199 96.8793 19.0199C96.0696 19.0199 95.3494 19.1989 94.7188 19.5568C94.0966 19.9062 93.6065 20.4134 93.2486 21.0781C92.8991 21.7429 92.7244 22.5483 92.7244 23.4943ZM117.321 35.3452C115.778 35.3452 114.398 34.9489 113.179 34.1562C111.96 33.3636 110.997 32.2131 110.29 30.7045C109.582 29.196 109.229 27.3636 109.229 25.2074C109.229 23.0256 109.587 21.1847 110.303 19.6847C111.027 18.1761 112.003 17.0384 113.23 16.2713C114.457 15.4957 115.825 15.108 117.334 15.108C118.484 15.108 119.43 15.304 120.172 15.696C120.913 16.0795 121.501 16.544 121.936 17.0895C122.371 17.6264 122.707 18.1335 122.946 18.6108H123.138V8.81818H127.778V35H123.227V31.9062H122.946C122.707 32.3835 122.362 32.8906 121.911 33.4276C121.459 33.956 120.862 34.4077 120.121 34.7827C119.379 35.1577 118.446 35.3452 117.321 35.3452ZM118.612 31.5483C119.592 31.5483 120.428 31.2841 121.118 30.7557C121.808 30.2187 122.332 29.473 122.69 28.5185C123.048 27.5639 123.227 26.4517 123.227 25.1818C123.227 23.9119 123.048 22.8082 122.69 21.8707C122.341 20.9332 121.821 20.2045 121.131 19.6847C120.449 19.1648 119.609 18.9048 118.612 18.9048C117.581 18.9048 116.72 19.1733 116.03 19.7102C115.339 20.2472 114.82 20.9886 114.47 21.9347C114.121 22.8807 113.946 23.9631 113.946 25.1818C113.946 26.4091 114.121 27.5043 114.47 28.4673C114.828 29.4219 115.352 30.1761 116.043 30.7301C116.741 31.2756 117.598 31.5483 118.612 31.5483Z" fill="black"/>
<defs>
<filter id="filter0_i_6_183" x="0" y="3" width="173" height="39" filterUnits="userSpaceOnUse" color-interpolation-filters="sRGB">
<feFlood flood-opacity="0" result="BackgroundImageFix"/>
<feBlend mode="normal" in="SourceGraphic" in2="BackgroundImageFix" result="shape"/>
<feColorMatrix in="SourceAlpha" type="matrix" values="0 0 0 0 0 0 0 0 0 0 0 0 0 0 0 0 0 0 127 0" result="hardAlpha"/>
<feMorphology radius="3" operator="erode" in="SourceAlpha" result="effect1_innerShadow_6_183"/>
<feOffset/>
<feGaussianBlur stdDeviation="2"/>
<feComposite in2="hardAlpha" operator="arithmetic" k2="-1" k3="1"/>
<feColorMatrix type="matrix" values="0 0 0 0 0 0 0 0 0 0 0 0 0 0 0 0 0 0 0.25 0"/>
<feBlend mode="normal" in2="shape" result="effect1_innerShadow_6_183"/>
</filter>
</defs>
</svg>
