<svg width="90" height="93" viewBox="0 0 90 93" fill="none" xmlns="http://www.w3.org/2000/svg">
<g filter="url(#filter0_i_4_108)">
<ellipse cx="45" cy="46.5" rx="45" ry="46.5" fill="#57EAFE"/>
</g>
<g clip-path="url(#clip0_4_108)">
<path d="M20.4586 52.2509C20.6542 51.9393 20.9933 51.752 21.3558 51.752H68.3731C68.7515 51.752 69.103 51.9558 69.2935 52.2897L75.2202 62.6834C75.6321 63.4059 75.1108 64.2953 74.2998 64.2953H14.8364C14.0056 64.2953 13.4866 63.3662 13.9392 62.6446L20.4586 52.2509Z" fill="#D9D9D9" stroke="#0B91AF"/>
<path d="M23.25 27.5H66.5312C67.9773 27.5 69.1562 28.6826 69.1562 30.1496V49.3622C69.1562 50.8292 67.9773 52.0118 66.5312 52.0118H23.25C21.8039 52.0118 20.625 50.8292 20.625 49.3622V30.1496C20.625 28.6826 21.8039 27.5 23.25 27.5Z" fill="#D9D9D9" stroke="#0B91AF"/>
<path d="M25.75 29.7047H63.4062C64.4208 29.7047 65.25 30.5347 65.25 31.5669V47.9449C65.25 48.977 64.4208 49.8071 63.4062 49.8071H25.75C24.7354 49.8071 23.9062 48.977 23.9062 47.9449V31.5669C23.9062 30.5347 24.7354 29.7047 25.75 29.7047Z" fill="#94DBCA" stroke="#0B91AF"/>
<path d="M23.1872 53.8682C23.324 53.6146 23.5873 53.4567 23.8737 53.4567H64.7102C64.9734 53.4567 65.2191 53.5904 65.3634 53.8123L67.9253 57.7493C68.2661 58.2729 67.8934 58.9685 67.272 58.9685H44.8906H21.7511C21.1587 58.9685 20.7818 58.3298 21.0647 57.8052L23.1872 53.8682Z" fill="#656565"/>
<path d="M39.3669 60.1602C39.4489 60.008 39.607 59.9134 39.7788 59.9134H49.3666C49.5441 59.9134 49.7064 60.0145 49.7858 60.1745L51.1139 62.8517C51.2698 63.1658 51.0431 63.5354 50.6947 63.5354H38.3352C37.9797 63.5354 37.7536 63.1521 37.9233 62.8373L39.3669 60.1602Z" fill="#5E5E5E"/>
<path d="M14.9688 66.5C14.4473 66.5 14.0088 66.1181 13.9219 65.6102H75.0781C74.9912 66.1182 74.5527 66.5 74.0312 66.5H14.9688Z" fill="#D9D9D9" stroke="#0B91AF"/>
<path d="M20.6961 51.1732L69.1875 51.0945L69.0312 51.3307L69.1875 51.4882H20.5336L20.7742 51.3307L20.6961 51.1732Z" fill="black"/>
</g>
<path d="M39.2111 34.929C39.7017 33.9924 40.4773 33.2361 41.4259 32.7693L41.8739 32.5489C43.8214 31.5906 46.1325 31.7451 47.9351 32.9541L47.979 32.9836C48.2005 33.1322 48.4106 33.2971 48.6076 33.4769V33.4769C49.023 33.8562 49.3761 34.2985 49.654 34.7876L49.6928 34.8559C50.0529 35.4896 50.2915 36.185 50.3964 36.9063L50.4589 37.3359C50.5249 37.7899 50.5158 38.2518 50.4319 38.7028L50.3086 39.3654C50.2621 39.6158 50.1536 39.8505 49.9932 40.0483V40.0483C49.4629 40.7024 49.5616 41.6622 50.2139 42.1947L50.7682 42.6472C50.8638 42.7252 50.8293 42.8788 50.7096 42.9085L48.1309 43.5489C46.1235 44.0474 44.0044 43.8166 42.1514 42.8977L41.223 42.4374C40.5298 42.0936 39.9334 41.5821 39.4881 40.9493V40.9493C38.9375 40.1669 38.642 39.2334 38.642 38.2766V37.2419C38.642 36.4363 38.8373 35.6426 39.2111 34.929V34.929Z" fill="#8F8F8F"/>
<path d="M38 44.7222V44.7222C39.0085 43.926 40.1498 43.3142 41.3711 42.9149L41.6111 42.8364H47.0679L47.6962 43.0238C48.786 43.3488 49.7816 43.9314 50.5988 44.7222V44.7222V47.892H38V44.7222Z" fill="#D9D9D9"/>
<path d="M41.7173 41.6879C41.3709 40.9564 41.9018 40.108 42.7112 40.108H46.0446C46.8334 40.108 47.3362 40.9503 46.962 41.6446L46.9478 41.671C46.7858 41.9716 46.7905 42.3345 46.9602 42.6308V42.6308C47.3335 43.2828 46.8713 44.0965 46.1201 44.1097L42.7187 44.1697C41.9133 44.184 41.3733 43.3472 41.718 42.6191V42.6191C41.8573 42.3249 41.8566 41.9821 41.7173 41.6879V41.6879Z" fill="#D9D9D9"/>
<path d="M48.4938 37.821C48.4938 38.8678 47.9868 39.9131 47.1791 40.7524C46.3977 41.5643 45.3728 42.1424 44.3641 42.3253C41.9324 41.6539 40.1852 39.8937 40.1852 37.821C40.1852 35.7106 42.0154 33.9475 44.3395 33.9475C46.6637 33.9475 48.4938 35.7106 48.4938 37.821Z" fill="#D9D9D9" stroke="#ADADAD"/>
<path d="M40.9691 34.5309L42.3333 33.3673H44.4599L46.3858 33.7284L47.429 34.5309L49.1142 35.9753L45.6636 34.7315L46.466 36.216L41.9722 34.9722L40.1265 35.8549L40.9691 34.5309Z" fill="#8F8F8F"/>
<defs>
<filter id="filter0_i_4_108" x="0" y="0" width="90" height="93" filterUnits="userSpaceOnUse" color-interpolation-filters="sRGB">
<feFlood flood-opacity="0" result="BackgroundImageFix"/>
<feBlend mode="normal" in="SourceGraphic" in2="BackgroundImageFix" result="shape"/>
<feColorMatrix in="SourceAlpha" type="matrix" values="0 0 0 0 0 0 0 0 0 0 0 0 0 0 0 0 0 0 127 0" result="hardAlpha"/>
<feMorphology radius="2" operator="erode" in="SourceAlpha" result="effect1_innerShadow_4_108"/>
<feOffset/>
<feGaussianBlur stdDeviation="2"/>
<feComposite in2="hardAlpha" operator="arithmetic" k2="-1" k3="1"/>
<feColorMatrix type="matrix" values="0 0 0 0 0 0 0 0 0 0 0 0 0 0 0 0 0 0 0.25 0"/>
<feBlend mode="normal" in2="shape" result="effect1_innerShadow_4_108"/>
</filter>
<clipPath id="clip0_4_108">
<rect width="65" height="40" fill="white" transform="translate(12 27)"/>
</clipPath>
</defs>
</svg>
